HIERARCHY
ROOT joint_0
{
	OFFSET 0.000000 0.000000 0.000000
	CHANNELS 6 Xposition Yposition Zposition Zrotation Yrotation Xrotation 
	JOINT joint_1
	{
		OFFSET 4.520508 -1.939880 86.268921
		CHANNELS 3 Zrotation Yrotation Xrotation
		JOINT joint_2
		{
			OFFSET -4.459717 -0.438538 78.934082
			CHANNELS 3 Zrotation Yrotation Xrotation
			JOINT joint_3
			{
				OFFSET -5.197754 -0.781128 78.796997
				CHANNELS 3 Zrotation Yrotation Xrotation
				JOINT joint_4
				{
					OFFSET 2.952026 -3.710571 109.812988
					CHANNELS 3 Zrotation Yrotation Xrotation
					JOINT joint_5
					{
						OFFSET 24.716797 -5.488037 87.903931
						CHANNELS 3 Zrotation Yrotation Xrotation
						End Site
						{
							OFFSET 0.000000 0.000000 0.000000
						}
					}
				}
				JOINT joint_6
				{
					OFFSET -3.154419 -25.484680 60.934937
					CHANNELS 3 Zrotation Yrotation Xrotation
					JOINT joint_7
					{
						OFFSET -28.997192 -144.472229 -32.671997
						CHANNELS 3 Zrotation Yrotation Xrotation
						JOINT joint_8
						{
							OFFSET 19.867676 -18.614380 -249.897949
							CHANNELS 3 Zrotation Yrotation Xrotation
							JOINT joint_9
							{
								OFFSET 5.281982 -13.816650 -264.993042
								CHANNELS 3 Zrotation Yrotation Xrotation
								End Site
								{
									OFFSET 0.000000 0.000000 0.000000
								}
							}
						}
					}
				}
				JOINT joint_10
				{
					OFFSET 6.494995 21.336792 62.257935
					CHANNELS 3 Zrotation Yrotation Xrotation
					JOINT joint_11
					{
						OFFSET 31.106567 145.200745 -27.007935
						CHANNELS 3 Zrotation Yrotation Xrotation
						JOINT joint_12
						{
							OFFSET 29.119141 24.684326 -248.460083
							CHANNELS 3 Zrotation Yrotation Xrotation
							JOINT joint_13
							{
								OFFSET 21.220093 31.248413 -262.703979
								CHANNELS 3 Zrotation Yrotation Xrotation
								End Site
								{
									OFFSET 0.000000 0.000000 0.000000
								}
							}
						}
					}
				}
			}
		}
	}
	JOINT joint_14
	{
		OFFSET -15.458496 -88.861694 -109.593018
		CHANNELS 3 Zrotation Yrotation Xrotation
		JOINT joint_15
		{
			OFFSET -6.193359 6.837952 -506.710999
			CHANNELS 3 Zrotation Yrotation Xrotation
			JOINT joint_16
			{
				OFFSET -35.096680 13.289795 -435.677025
				CHANNELS 3 Zrotation Yrotation Xrotation
				JOINT joint_17
				{
					OFFSET 158.491211 -33.916565 -71.771002
					CHANNELS 3 Zrotation Yrotation Xrotation
					End Site
					{
						OFFSET 0.000000 0.000000 0.000000
					}
				}
			}
		}
	}
	JOINT joint_18
	{
		OFFSET 23.116943 86.574158 -110.082031
		CHANNELS 3 Zrotation Yrotation Xrotation
		JOINT joint_19
		{
			OFFSET -6.125854 -0.283569 -506.757019
			CHANNELS 3 Zrotation Yrotation Xrotation
			JOINT joint_20
			{
				OFFSET -63.240234 11.589966 -432.537994
				CHANNELS 3 Zrotation Yrotation Xrotation
				JOINT joint_21
				{
					OFFSET 156.074219 -41.487305 -73.077999
					CHANNELS 3 Zrotation Yrotation Xrotation
					End Site
					{
						OFFSET 0.000000 0.000000 0.000000
					}
				}
			}
		}
	}
}
MOTION
Frames: 12
Frame Time: 0.016667
-1082.111328 894.046387 1140.770020 10.895652 -0.446746 -0.138616 0.237007 0.005643 -0.457464 0.268897 -0.032265 0.105214 0.258329 0.025785 -0.065379 -0.253422 0.821341 1.093688 0.000000 0.000000 0.000000 2.402057 0.112518 -0.366745 0.119536 0.336065 1.111468 0.036618 -0.856986 -0.957271 0.000000 0.000000 0.000000 -1.662104 -0.167134 0.104443 -0.076865 0.211057 -0.278035 -0.312562 -2.032685 -0.407917 0.000000 0.000000 0.000000 -0.357646 -1.613554 -1.214082 -0.315395 1.630934 0.561136 -0.291157 0.216778 -0.085443 0.000000 0.000000 0.000000 -1.110773 -1.745129 -0.614039 -1.107099 1.885054 -0.560645 -1.167342 1.017238 -0.276024 0.000000 0.000000 0.000000 
-1082.218018 894.171631 1140.750000 10.891227 -0.457304 -0.134198 0.231745 0.042432 -0.451108 0.262929 -0.036094 0.104394 0.252584 0.030944 -0.063908 -0.252453 0.853885 1.097059 0.000000 0.000000 0.000000 2.395747 0.113241 -0.362107 0.120239 0.335380 1.114941 0.036336 -0.857995 -0.968387 0.000000 0.000000 0.000000 -1.620857 -0.154947 0.090217 -0.077868 0.214510 -0.287848 -0.312132 -2.031856 -0.403654 0.000000 0.000000 0.000000 -0.354688 -1.624929 -1.231238 -0.311788 1.663211 0.569387 -0.287336 0.231305 -0.080598 0.000000 0.000000 0.000000 -1.108387 -1.733461 -0.622839 -1.104685 1.876564 -0.570703 -1.166381 1.027883 -0.272739 0.000000 0.000000 0.000000 
-1082.298706 894.299561 1140.729980 10.885447 -0.465713 -0.128304 0.225533 0.074067 -0.449234 0.256306 -0.042151 0.103655 0.246215 0.037802 -0.062357 -0.250710 0.892382 1.098973 0.000000 0.000000 0.000000 2.388054 0.116475 -0.357573 0.120672 0.337037 1.117853 0.036132 -0.859863 -0.978169 0.000000 0.000000 0.000000 -1.580698 -0.138774 0.076337 -0.078567 0.222456 -0.298492 -0.311722 -2.031365 -0.399362 0.000000 0.000000 0.000000 -0.351303 -1.635002 -1.249667 -0.307844 1.689977 0.577388 -0.283053 0.250385 -0.074570 0.000000 0.000000 0.000000 -1.107703 -1.702286 -0.627748 -1.103935 1.825660 -0.590192 -1.167599 1.054062 -0.266349 0.000000 0.000000 0.000000 
-1082.365234 894.433533 1140.708008 10.882120 -0.459065 -0.120728 0.215915 0.108743 -0.455678 0.246833 -0.056251 0.105247 0.236846 0.052964 -0.062827 -0.248174 0.927593 1.097802 0.000000 0.000000 0.000000 2.417190 0.116335 -0.360143 0.118764 0.343992 1.114262 0.037213 -0.871298 -0.961698 0.000000 0.000000 0.000000 -1.614825 -0.117097 0.063623 -0.075120 0.246914 -0.291601 -0.312467 -2.032192 -0.409971 0.000000 0.000000 0.000000 -0.348879 -1.652835 -1.268550 -0.304902 1.699711 0.582776 -0.279568 0.278098 -0.067054 0.000000 0.000000 0.000000 -1.108003 -1.680003 -0.632289 -1.104104 1.758329 -0.613753 -1.170030 1.091503 -0.257532 0.000000 0.000000 0.000000 
-1082.467285 894.562500 1140.657959 10.887007 -0.444412 -0.113618 0.200930 0.119307 -0.497177 0.234902 -0.084624 0.120258 0.223891 0.081826 -0.070933 -0.242987 0.992834 1.094925 0.000000 0.000000 0.000000 2.490858 0.103662 -0.373845 0.112367 0.350556 1.094372 0.038059 -0.850578 -0.875606 0.000000 0.000000 0.000000 -1.787371 -0.086583 0.071263 -0.065124 0.307295 -0.265720 -0.312734 -2.026193 -0.432796 0.000000 0.000000 0.000000 -0.347820 -1.667572 -1.283445 -0.303704 1.682783 0.581644 -0.277820 0.309105 -0.059620 0.000000 0.000000 0.000000 -1.110951 -1.662226 -0.630300 -1.106725 1.675647 -0.648819 -1.176056 1.136296 -0.248443 0.000000 0.000000 0.000000 
-1082.556274 894.698364 1140.604004 10.894920 -0.414999 -0.105114 0.182990 0.134991 -0.546334 0.220459 -0.124329 0.136607 0.208495 0.121420 -0.079255 -0.236681 1.051902 1.087276 0.000000 0.000000 0.000000 2.599896 0.087845 -0.396557 0.103536 0.361885 1.068366 0.040185 -0.840405 -0.762317 0.000000 0.000000 0.000000 -2.037069 -0.051015 0.079353 -0.051031 0.384190 -0.222690 -0.314351 -2.021910 -0.471842 0.000000 0.000000 0.000000 -0.348002 -1.689618 -1.298446 -0.303803 1.648618 0.577826 -0.277161 0.348309 -0.050924 0.000000 0.000000 0.000000 -1.114896 -1.653329 -0.627760 -1.110280 1.577063 -0.687871 -1.183264 1.192218 -0.236947 0.000000 0.000000 0.000000 
-1082.490601 894.869263 1140.620972 10.893789 -0.334310 -0.087666 0.168950 0.244576 -0.535917 0.204569 -0.170208 0.130638 0.194180 0.167509 -0.071963 -0.236306 0.987486 1.072524 0.000000 0.000000 0.000000 2.744231 0.093579 -0.425474 0.096776 0.396802 1.061830 0.049467 -0.975490 -0.725949 0.000000 0.000000 0.000000 -2.264603 -0.018923 0.032857 -0.036432 0.435779 -0.150493 -0.323934 -2.050370 -0.548032 0.000000 0.000000 0.000000 -0.349931 -1.763832 -1.325456 -0.304489 1.616944 0.578395 -0.276446 0.414746 -0.036370 0.000000 0.000000 0.000000 -1.113391 -1.698249 -0.645790 -1.108650 1.487368 -0.706402 -1.183260 1.266027 -0.217305 0.000000 0.000000 0.000000 
-1082.332520 895.121948 1140.720947 10.866274 -0.200220 -0.063726 0.168366 0.566354 -0.412636 0.192315 -0.236725 0.079029 0.188954 0.232297 -0.030380 -0.250893 0.690581 1.056369 0.000000 0.000000 0.000000 2.948771 0.095401 -0.418038 0.084622 0.460710 0.999515 0.069787 -1.336649 -0.784428 0.000000 0.000000 0.000000 -2.419249 -0.025516 -0.147483 -0.019340 0.388086 0.010662 -0.345239 -2.103489 -0.714484 0.000000 0.000000 0.000000 -0.351574 -1.870833 -1.370242 -0.305256 1.530405 0.595189 -0.272816 0.541063 -0.007663 0.000000 0.000000 0.000000 -1.098869 -1.787892 -0.680011 -1.094156 1.377494 -0.715029 -1.169894 1.377792 -0.181301 0.000000 0.000000 0.000000 
-1082.019897 895.410706 1140.890991 10.829370 -0.017561 -0.031399 0.171210 0.986049 -0.227911 0.180027 -0.304835 0.003493 0.186287 0.296218 0.026536 -0.272242 0.266027 1.031937 0.000000 0.000000 0.000000 3.189078 0.119834 -0.419158 0.072020 0.549049 0.960245 0.094705 -1.842477 -0.923869 0.000000 0.000000 0.000000 -2.554822 -0.036287 -0.377304 -0.002038 0.316727 0.197015 -0.374686 -2.189831 -0.917834 0.000000 0.000000 0.000000 -0.354815 -2.026712 -1.426466 -0.306482 1.445583 0.616170 -0.268944 0.695072 0.027091 0.000000 0.000000 0.000000 -1.078777 -1.928114 -0.734507 -1.074332 1.276051 -0.703094 -1.149170 1.507246 -0.137131 0.000000 0.000000 0.000000 
-1081.227539 895.628052 1141.167969 10.824331 0.241544 0.024575 0.151974 1.245359 -0.073109 0.150322 -0.333132 -0.055045 0.163590 0.321270 0.068023 -0.278581 -0.084637 0.969782 0.000000 0.000000 0.000000 3.401930 0.265717 -0.553008 0.080161 0.667422 1.188849 0.115197 -2.387907 -1.192630 0.000000 0.000000 0.000000 -2.713633 0.044689 -0.480321 0.005565 0.397021 0.242453 -0.407154 -2.360775 -1.022500 0.000000 0.000000 0.000000 -0.365275 -2.331623 -1.489588 -0.307803 1.553491 0.613671 -0.271244 0.797439 0.047992 0.000000 0.000000 0.000000 -1.072052 -2.189438 -0.844724 -1.068656 1.295922 -0.613208 -1.133584 1.601415 -0.104714 0.000000 0.000000 0.000000 
-1079.751099 895.764648 1141.521973 10.879708 0.665727 0.140850 0.092987 1.161378 -0.026510 0.090565 -0.283774 -0.061629 0.104484 0.275175 0.079901 -0.258814 -0.316794 0.843128 0.000000 0.000000 0.000000 3.555051 0.589605 -0.851979 0.118334 0.833248 1.799399 0.125409 -2.935449 -1.667965 0.000000 0.000000 0.000000 -2.916149 0.288798 -0.376945 -0.001467 0.737244 0.068861 -0.447066 -2.676584 -0.985522 0.000000 0.000000 0.000000 -0.387052 -2.805583 -1.561824 -0.313935 1.725190 0.515043 -0.287468 0.879973 0.058321 0.000000 0.000000 0.000000 -1.082475 -2.676927 -1.069422 -1.081353 1.471293 -0.401227 -1.121564 1.634853 -0.090067 0.000000 0.000000 0.000000 
-1077.793945 895.829956 1141.983032 10.968580 1.166191 0.281291 0.012980 0.915783 -0.007924 0.011694 -0.196147 -0.050400 0.023321 0.194268 0.074721 -0.224305 -0.474499 0.681894 0.000000 0.000000 0.000000 3.672694 1.028107 -1.260688 0.167701 1.032591 2.652127 0.127783 -3.525045 -2.264854 0.000000 0.000000 0.000000 -3.135460 0.627311 -0.168941 -0.020593 1.222710 -0.231467 -0.489480 -3.072667 -0.848282 0.000000 0.000000 0.000000 -0.416688 -3.428104 -1.640702 -0.319839 2.087843 0.392435 -0.308736 0.917919 0.056824 0.000000 0.000000 0.000000 -1.105907 -3.284697 -1.349568 -1.106820 1.765822 -0.112094 -1.112933 1.639852 -0.084498 0.000000 0.000000 0.000000 
